<?xml version="1.0" standalone="no"?>
<!DOCTYPE svg PUBLIC "-//W3C//DTD SVG 20010904//EN"
 "http://www.w3.org/TR/2001/REC-SVG-20010904/DTD/svg10.dtd">
<svg version="1.0" xmlns="http://www.w3.org/2000/svg"
 width="411.000000pt" height="315.000000pt" viewBox="0 0 411.000000 315.000000"
 preserveAspectRatio="xMidYMid meet">

<g transform="translate(0.000000,315.000000) scale(0.100000,-0.100000)"
fill="#000000" stroke="none">
<path d="M2135 2861 c-48 -12 -75 -30 -75 -51 0 -43 97 -43 188 0 51 24 63 33
52 40 -23 13 -131 20 -165 11z"/>
<path d="M1700 2662 c-138 -67 -225 -114 -225 -123 0 -21 73 -42 120 -34 62
11 449 206 453 229 5 26 -15 36 -73 36 -44 0 -81 -14 -275 -108z"/>
<path d="M2355 2759 c-23 -4 -167 -68 -321 -142 -153 -74 -289 -137 -301 -141
-12 -4 -27 -13 -33 -21 -22 -26 6 -45 65 -45 48 0 56 3 83 34 17 19 66 55 109
80 61 35 95 48 153 57 87 13 142 32 300 106 82 39 111 57 100 62 -24 13 -111
19 -155 10z"/>
<path d="M2498 2636 c-31 -13 -71 -32 -89 -44 l-32 -20 43 -21 c24 -12 50 -21
58 -21 20 0 242 101 242 110 0 29 -150 26 -222 -4z"/>
<path d="M2669 2519 c-115 -56 -114 -55 -77 -91 30 -29 33 -30 67 -18 64 23
266 119 269 128 4 14 -35 22 -109 22 -56 0 -77 -6 -150 -41z"/>
<path d="M1434 2456 c-11 -29 42 -123 84 -151 54 -35 86 -31 90 12 5 47 -23
80 -100 119 -56 28 -69 32 -74 20z"/>
<path d="M2919 2447 c-48 -37 -48 -41 -55 -450 -7 -347 -6 -387 8 -387 20 0
76 64 93 104 17 42 31 697 15 726 -12 22 -37 25 -61 7z"/>
<path d="M2703 2338 c-33 -38 -39 -53 -17 -44 14 5 16 4 7 -5 -9 -8 -8 -21 3
-52 8 -23 15 -60 16 -83 2 -38 4 -41 21 -32 28 15 47 70 47 138 0 96 -31 128
-77 78z"/>
<path d="M1687 2329 c-10 -6 -17 -22 -17 -37 0 -28 24 -72 39 -72 12 0 43 79
36 91 -12 18 -40 27 -58 18z"/>
<path d="M1430 2223 c1 -35 38 -100 78 -134 38 -32 190 -104 200 -95 2 3 0 31
-4 63 l-9 58 -125 63 c-68 34 -128 62 -132 62 -5 0 -8 -8 -8 -17z"/>
<path d="M2723 2062 c-6 -4 -10 -21 -9 -37 4 -27 3 -28 -11 -10 -14 20 -14 20
-29 1 -11 -15 -14 -57 -14 -186 0 -92 -3 -201 -6 -243 -8 -86 -3 -92 44 -52
63 53 71 88 73 311 1 111 -1 207 -5 213 -8 13 -26 14 -43 3z"/>
<path d="M2562 2030 c-2 -14 -70 -48 -81 -41 -2 2 -8 -3 -12 -11 -7 -10 -9
-10 -11 2 -1 8 -5 -61 -8 -155 -3 -93 -3 -173 0 -177 3 -4 3 -56 0 -115 -3
-59 -3 -112 1 -116 11 -14 71 45 90 88 21 44 25 144 9 176 -8 14 -7 25 5 43
13 19 15 51 12 172 -1 82 -4 142 -5 134z"/>
<path d="M1430 2000 c0 -33 29 -93 61 -126 39 -40 316 -170 382 -179 47 -6 47
-6 47 22 0 37 -29 81 -41 62 -7 -12 -9 -11 -9 0 0 11 -4 9 -14 -4 -14 -19 -14
-19 -36 0 -12 11 -28 32 -36 48 -11 21 -55 47 -184 112 -150 75 -170 83 -170
65z"/>
<path d="M2305 1924 c-15 -8 -30 -12 -33 -9 -3 2 -11 -3 -18 -13 -18 -23 -19
-243 -2 -260 7 -7 25 -12 40 -12 21 0 33 8 48 33 17 27 20 50 20 148 0 128 -5
139 -55 113z"/>
<path d="M2055 1842 c0 -17 11 -30 35 -42 40 -21 70 -12 70 21 0 28 -27 54
-43 41 -7 -5 -22 -12 -35 -15 -18 -4 -21 -3 -13 7 8 9 7 13 -3 13 -7 0 -12
-11 -11 -25z"/>
<path d="M1430 1768 c0 -33 38 -104 69 -130 15 -13 161 -88 325 -167 235 -114
301 -143 314 -134 24 14 26 46 7 83 -14 28 -60 53 -362 201 -190 93 -347 169
-349 169 -2 0 -4 -10 -4 -22z"/>
<path d="M1992 1718 c-7 -7 -12 -26 -12 -44 0 -31 4 -34 68 -58 107 -41 132
-33 98 32 -14 27 -100 82 -128 82 -8 0 -19 -5 -26 -12z"/>
<path d="M2284 1565 c-35 -24 -45 -64 -42 -165 l3 -93 33 28 c42 35 69 89 78
154 5 42 3 55 -11 71 -22 24 -34 25 -61 5z"/>
</g>
</svg>
